<svg xmlns="http://www.w3.org/2000/svg" viewBox="0 0 324.42 341"><title>1280_1</title><path d="M27.5,205H45.68A33.32,33.32,0,0,0,79,171.68V102.49A41.16,41.16,0,0,0,37.84,61.33H-218.43a24.87,24.87,0,0,1-25-24.75,24.87,24.87,0,0,1,25-24.75l110.09-.16A26.33,26.33,0,0,0-82-14.67C-82-29.21-91.75-41-108.33-41a26.33,26.33,0,0,1-26.32-27.07c.39-14.34,12.52-25.59,26.87-25.59H9.3a21.2,21.2,0,0,0,21.2-21.2V-135" transform="translate(244.42 135)" style="fill:none;stroke:#fdb849;stroke-miterlimit:10;stroke-width:2px"/></svg>