<svg xmlns="http://www.w3.org/2000/svg" viewBox="0 0 331.63 226.51"><title>1280_2</title><path d="M-244,295.75V488.18c0,18.19,14.88,33.42,33.07,33.07a32.44,32.44,0,0,0,31.8-32.43L-179,381.5a32.44,32.44,0,0,1,32.44-32.44,32.44,32.44,0,0,1,32.44,32.44l.14,107.32a32.44,32.44,0,0,0,32.44,32.44,32.44,32.44,0,0,0,32.44-32.44L-49,381.5a32.44,32.44,0,0,1,31.8-32.43C1,348.72,15.9,364,15.9,382.14v106c0,18.19,14.88,33.42,33.07,33.07a32.44,32.44,0,0,0,31.8-32.43V376.73a22.88,22.88,0,0,1,5.07-14.4" transform="translate(245.01 -295.75)" style="fill:none;stroke:#fdb849;stroke-miterlimit:10;stroke-width:2px"/></svg>