<svg xmlns="http://www.w3.org/2000/svg" viewBox="0 0 410.69 258.94"><title>1680_2</title><path d="M130.65,397V614.11c0,22.45,18.38,41.26,40.83,40.83a40,40,0,0,0,39.26-40V529.43c0-22.45,18.38-41.26,40.83-40.83a40,40,0,0,1,39.26,40v50.45c0,22.45,18.38,41.26,40.83,40.83a40,40,0,0,0,39.26-40V529.43c0-22.45,18.38-41.26,40.83-40.83a40,40,0,0,1,39.26,40v85.47c0,22.45,18.38,41.26,40.83,40.83a40,40,0,0,0,39.26-40V492.83h0a6,6,0,0,1,6-6h3.24" transform="translate(-129.65 -397)" style="fill:none;stroke:#fdb849;stroke-miterlimit:10;stroke-width:2px"/></svg>