<svg xmlns="http://www.w3.org/2000/svg" viewBox="0 0 392.58 379.5"><title>1680_1</title><path d="M487.75-88.25V-67.1A24.45,24.45,0,0,1,463.3-42.65h-162c-16.4,0-30.26,12.86-30.71,29.25a30.1,30.1,0,0,0,30.09,30.94c20,0,30,13.38,30.1,29.92s-11.06,30.27-30.43,30.27H172.89c-16.4,0-30.26,12.86-30.71,29.25a30.1,30.1,0,0,0,30.09,30.94H489.09a43.66,43.66,0,0,1,43.66,43.66V259a31.24,31.24,0,0,1-31.24,31.24H471.25" transform="translate(-141.17 88.25)" style="fill:none;stroke:#fdb849;stroke-miterlimit:10;stroke-width:2px"/></svg>