<svg xmlns="http://www.w3.org/2000/svg" viewBox="0 0 442.25 227.94"><title>1920_2</title><path d="M1053,467.67h0a40.81,40.81,0,0,0-40.81,40.81V584.9a40,40,0,0,1-39.26,40c-22.45.43-40.83-18.37-40.83-40.83V498.64a40,40,0,0,0-39.26-40C870.38,458.17,852,477,852,499.43v50.45a40,40,0,0,1-39.26,40c-22.45.43-40.83-18.37-40.83-40.83V498.64a40,40,0,0,0-39.26-40c-22.45-.43-40.83,18.37-40.83,40.83V584.9a40,40,0,0,1-39.26,40c-22.45.43-40.83-18.37-40.83-40.83V398" transform="translate(-610.73 -398)" style="fill:none;stroke:#fdb849;stroke-miterlimit:10;stroke-width:2px"/></svg>