<svg xmlns="http://www.w3.org/2000/svg" viewBox="0 0 443.58 403.62"><title>1920_1</title><path d="M957.33-91.25V-70.1a24.45,24.45,0,0,1-24.45,24.45H778.63c-16.4,0-30.26,12.86-30.71,29.25A30.1,30.1,0,0,0,778,14.55c20,0,30,13.38,30.1,29.92S797,74.74,777.67,74.74H634.4c-16.4,0-30.26,12.86-30.71,29.25a30.1,30.1,0,0,0,30.09,30.94H1001.6a43.66,43.66,0,0,1,43.66,43.66V280.13A31.24,31.24,0,0,1,1014,311.37H972" transform="translate(-602.68 91.25)" style="fill:none;stroke:#fdb849;stroke-miterlimit:10;stroke-width:2px"/></svg>