<svg xmlns="http://www.w3.org/2000/svg" viewBox="0 0 513.21 245.81"><title>2560_2</title><path d="M1120.79,436.33V633.41c0,25.75,20.41,47.3,46.16,47.73a47,47,0,0,0,47.76-47V531.44c0-25.75,20.41-47.3,46.16-47.73a47,47,0,0,1,47.76,47V597.6c0,25.75,20.41,47.3,46.16,47.73a47,47,0,0,0,47.76-47V531.44c0-25.75,20.41-47.3,46.16-47.73a47,47,0,0,1,47.76,47V633.41c0,25.75,20.41,47.3,46.16,47.73a47,47,0,0,0,47.76-47V523.73A37.73,37.73,0,0,1,1628.11,486H1633" transform="translate(-1119.79 -436.33)" style="fill:none;stroke:#fdb849;stroke-miterlimit:10;stroke-width:2px"/></svg>