<svg xmlns="http://www.w3.org/2000/svg" viewBox="0 0 508.53 416"><title>2560_1</title><path d="M1517.25-73v6.33A23.67,23.67,0,0,1,1493.58-43h-180c-18.9,0-34.73,15.47-34.37,34.37a33.71,33.71,0,0,0,33.7,33.05,33.71,33.71,0,0,1,33.7,33.05c.36,18.9-15.47,34.37-34.37,34.37H1145.85c-18.9,0-34.73,15.47-34.37,34.37a33.71,33.71,0,0,0,33.7,33.05h432.7A40.12,40.12,0,0,1,1618,199.37V303.63A38.37,38.37,0,0,1,1579.63,342H1535" transform="translate(-1110.47 73)" style="fill:none;stroke:#fdb849;stroke-miterlimit:10;stroke-width:2px"/></svg>